<?xml version="1.0" standalone="no"?>
<!DOCTYPE svg PUBLIC "-//W3C//DTD SVG 1.1//EN" "http://www.w3.org/Graphics/SVG/1.1/DTD/svg11.dtd" >
<svg>
<metadata>
Created by FontForge 20090914 at Thu Feb 18 17:49:16 2016
 By www-data
Designed by sk89q. Derivative typeface &#194;&#169; 2004 The Risen Realm (http://www.therisenrealm.com) and Keiichi Anime Forever (http://anime.therisenrealm.com). Original type &#194;&#169; Kishimoto Masashi, Shueisha, TV Tokyo. All Rights Reserved.
</metadata>
<defs>
<font id="NinjaNaruto" horiz-adv-x="636" >
  <font-face 
    font-family="Ninja Naruto"
    font-weight="400"
    font-stretch="normal"
    units-per-em="2048"
    panose-1="2 0 0 0 0 0 0 0 0 0"
    ascent="1638"
    descent="-410"
    x-height="1848"
    cap-height="1850"
    bbox="-15.999 -383.998 1662 1903"
    underline-thickness="48"
    underline-position="-140"
    unicode-range="U+0020-U+F002"
  />
<missing-glyph horiz-adv-x="500" 
d="M256 0v1280h1024v-1280h-1024zM288 32h960v1216h-960v-1216z" />
    <glyph glyph-name=".notdef" horiz-adv-x="500" 
d="M256 0v1280h1024v-1280h-1024zM288 32h960v1216h-960v-1216z" />
    <glyph glyph-name="space" unicode=" " horiz-adv-x="390" 
 />
    <glyph glyph-name="exclam" unicode="!" horiz-adv-x="249" 
 />
    <glyph glyph-name="quotedbl" unicode="&#x22;" horiz-adv-x="237" 
 />
    <glyph glyph-name="numbersign" unicode="#" 
 />
    <glyph glyph-name="dollar" unicode="$" 
 />
    <glyph glyph-name="percent" unicode="%" 
 />
    <glyph glyph-name="ampersand" unicode="&#x26;" horiz-adv-x="486" 
 />
    <glyph glyph-name="quotesingle" unicode="'" horiz-adv-x="169" 
 />
    <glyph glyph-name="parenleft" unicode="(" horiz-adv-x="336" 
 />
    <glyph glyph-name="parenright" unicode=")" horiz-adv-x="384" 
 />
    <glyph glyph-name="asterisk" unicode="*" horiz-adv-x="492" 
 />
    <glyph glyph-name="plus" unicode="+" 
 />
    <glyph glyph-name="comma" unicode="," horiz-adv-x="237" 
 />
    <glyph glyph-name="hyphen" unicode="-" horiz-adv-x="471" 
 />
    <glyph glyph-name="hyphen" unicode="&#x2010;" horiz-adv-x="471" 
 />
    <glyph glyph-name="period" unicode="." horiz-adv-x="201" 
 />
    <glyph glyph-name="slash" unicode="/" horiz-adv-x="357" 
 />
    <glyph glyph-name="zero" unicode="0" horiz-adv-x="1492" 
d="M503 1712c-78.667 52 -158.332 76.999 -238.999 74.999c-35.333 -38.667 -70.333 -68.667 -105 -90l-15 -44v-105c-23.333 -154 -33.333 -278.667 -30 -374c-82 -230 -116.667 -439.333 -104 -628c64 11.333 103.667 41.333 119 90c78 -252 212.667 -441.667 404 -569
c462.667 -186 776.667 13.667 942 599c39.333 722.667 -180 1116.33 -658 1181c-132.667 -41.333 -237.334 -86.333 -314.001 -135zM1087 1099c43.333 -594 -91.333 -823.332 -404 -687.999c-190.667 229.333 -260.667 483.666 -210 762.999c44 177.333 158.667 277 344 299
c159.333 -44 249.333 -168.667 270 -374z" />
    <glyph glyph-name="one" unicode="1" horiz-adv-x="1419" 
d="M733 1798l-53 -27c-9.33301 -15.333 -18.333 -24 -27 -26l-54 -27l-40 -14l-27 -27l-255 -121l-68 14c-55.333 -79.333 -86.666 -155.666 -93.999 -228.999c74 -60 145.667 -100 215 -120l27 13l41 13c83.333 44 154.666 75.333 213.999 94l-13 -80v-40l-27 -108l-13 -40
v-41c-43.333 -138 -61.333 -258.667 -54 -362l-13 -27c-5.33301 -84 -19 -155.667 -41 -215h-53l-41 13h-40l-215 27c-84.667 -90 -111.667 -188.333 -81 -295c104.667 -48 207.667 -75 309 -81c-2.66699 -23.333 -2.66699 -41.333 0 -54
c94.667 4.66699 171 0.333984 229 -12.999h53l229 -14h54l40 -13h40h54h40h269c21.333 50 43.666 90.333 66.999 121l-13 27h-41l-27 13l-120 54c-148 100 -300.333 153.667 -457 161l13 67l27 68l14 80l13 67c10.667 75.333 24 138 40 188l14 81
c22 67.333 35.333 125.666 40 174.999l13 80l14 41v40l13 27v53c8.66699 42.667 13.334 78.667 14.001 108c44 89.333 66.333 174.333 67 255c-32 61.333 -68 110.666 -108 147.999c-54 -54.667 -116.667 -72.667 -188 -54z" />
    <glyph glyph-name="two" unicode="2" horiz-adv-x="1564" 
d="M378 1807l-38.998 -77.999l-26 -13l-13 -26c-106.667 -70 -185 -152.667 -235 -248c56.667 -123.333 148 -184 274 -182c69.333 103.333 147.666 177 234.999 221c120 -165.333 193.667 -339 221 -521c4.66699 -172.667 -34.333 -320.334 -117 -443.001
c-340.667 186.667 -566.667 117 -678 -209c204.667 -241.333 448 -315 730 -221c262 -108.667 509.667 -113 743 -13l39 130l-39 13h-39c-41.333 20.667 -76 33.667 -104 39l-40 13l-39 13h-39l-26 13l-208 52c236 532 157.667 1018.67 -235 1460c-82 30 -156 43 -222 39
c-52.667 -20.667 -100.334 -33.667 -143.001 -39z" />
    <glyph glyph-name="three" unicode="3" horiz-adv-x="1244" 
d="M90 1442c178 -72.667 326.333 -50.668 445 65.999h131c91.333 -172.667 -30.667 -273 -366 -301l26 52c-99.333 -36.667 -178 -89 -236 -157c-48 -100.667 -34.667 -183.334 40 -248.001h39c82 -16 151.667 -20.333 209 -13c185.333 41.333 351 28 497 -40
c-23.333 -124 -75.666 -224.333 -156.999 -301c-64.667 -66 -82 -66 -52 0l-26 -26l-79 -52l-39 -13l-118 -52h-39l-275 -131c-27.333 -64.667 -53.333 -117 -78 -157l52 -53c401.333 -58 719.666 51 954.999 327c270 318.667 257 598 -39 838
c112 250.667 86 464.334 -78 641.001l-40 26l-52 -39l-26 13h-39l-105 26h-131c-214 -73.333 -353.667 -208.666 -419 -405.999z" />
    <glyph glyph-name="four" unicode="4" horiz-adv-x="1359" 
d="M134 1711l10.999 -45.999l-11 -24l-12 -199c-16.667 -104.667 -20.667 -190.334 -12 -257.001c-4.66699 -64.667 -0.666992 -123.334 12 -176.001c-86 -91.333 -125 -192.666 -117 -303.999l23 -36c90 -10.667 164.333 -38 223 -82
c76 0.666992 138.333 24.334 187 71.001h47l35 -12h35l188 -12v-117l23 -23v-35c24 -76 35.667 -142.333 35 -199v-36c26.667 -85.333 38.334 -159.333 35.001 -222l24 12l105 105c11.333 52 27 95 47 129v35c46 112.667 65.667 222 59 328
c124 45.333 213.667 119.333 269 222c-41.333 63.333 -127.333 90.666 -258 81.999v71l12 58v152v47c10.667 81.333 14.667 147.666 12 198.999v35l11 141c-24.667 40 -51.667 71 -81 93c-91.333 -5.33301 -165.666 -36.333 -222.999 -93c2 -46.667 -2 -89.667 -12 -129
l-11 -550h-94c-106.667 2 -196.334 13.667 -269.001 35c-28.667 120.667 -32.667 230 -12 328v35v35v35l12 94v35v35c17.333 60.667 25 119.334 23 176.001c-62.667 69.333 -133 104.333 -211 105c-52 -42 -87 -89 -105 -141z" />
    <glyph glyph-name="five" unicode="5" horiz-adv-x="1045" 
d="M81 1167c-49.333 -70 -64.999 -144.668 -46.999 -224.001c13.333 -8 21 -16 23 -24l83 -106c73.333 -10.667 128.333 5 165 47l83 12c248.667 -120 362.667 -277.333 342 -472c-167.333 -101.333 -364 -81.666 -590 59.001c-40.667 -32 -84 -51.667 -130 -59
c238.667 -451.333 549.667 -518.333 933 -201c132 204 135.667 396.667 11 578c-139.333 226 -328 368 -566 426v35l12 189c152.667 31.333 306 -4 460 -106c74.667 60.667 125.667 123.667 153 189c1.33301 50.667 -10.334 93.667 -35.001 129l-142 24
c-147.333 59.333 -277 91 -389 95c-39.333 65.333 -94.333 96.666 -165 93.999c-146 -219.333 -213 -447.666 -201 -684.999z" />
    <glyph glyph-name="six" unicode="6" horiz-adv-x="1470" 
d="M656 1842c-472.667 -162.667 -667 -577.665 -583 -1245c-83.333 -78.667 -96.666 -171.334 -39.999 -278.001c54 -42.667 107 -47 159 -13c177.333 -198.667 385 -296 623 -292c276 25.333 457 158 543 398c-35.333 390 -353.333 518 -954 384
c-6 652 197.333 837.333 610 556c45.333 -0.666992 85 8 119 26l13 40c27.333 70.667 45 132.667 53 186c-156.667 163.333 -333.334 242.666 -530.001 237.999h-13h13h-13zM1027 491.002c-138.667 -184 -297.668 -192.668 -477.001 -26.001
c-19.333 37.333 29.334 59.333 146.001 66c128.667 10.667 239 -2.66602 331 -39.999z" />
    <glyph glyph-name="seven" unicode="7" horiz-adv-x="1314" 
d="M856 1772l-39.999 -0.000976562l-53 13h-147l-27 14h-147l-53 13h-93l-241 27l-26 -40c-28 -110.667 -32.667 -213 -14 -307h94l53 -14c53.333 2.66699 102.333 -1.66602 147 -12.999h53h94l240 -27l-27 -93l-40 -54l-13 -53l-27 -53l-27 -40
c-20 -71.333 -46.667 -129.333 -80 -174l-26 -53l-14 -67l-26 -40l-14 -40l-26 -40l-14 -53l-26 -54l-54 -107c-18.667 -98.667 -45.334 -178.667 -80.001 -240c-18 -103.333 -27 -192.333 -27 -267c66 -21.333 124 -21.333 174 0l27 40l80 107l13 27l40 93l120 174l13 53
l27 54l80 146l14 40l13 40l27 67l66 107l14 53l13 40l27 40l133 294c52 -30 105.333 -39 160 -27c172.667 300 66 464.667 -320 494z" />
    <glyph glyph-name="eight" unicode="8" horiz-adv-x="1149" 
d="M693 1790c-191.333 -7.33301 -341.665 -74.999 -450.998 -202.999c-76 -261.333 -16 -471.666 180 -630.999c-450.667 -264 -529.334 -549.333 -236.001 -856l112 -34c437.333 -140.667 711.666 -54.334 822.999 258.999c5.33301 270.667 -66 496 -214 676
c178.667 201.333 223.667 396.666 135 585.999c-16 198 -121 288.333 -315 271zM862.001 1362c21.333 -104 -12.666 -171.666 -101.999 -202.999c-112.667 -22 -191.334 19.333 -236.001 124c-61.333 109.333 -35 180.666 79 213.999c130.667 20.667 217 -24.333 259 -135z
M828.002 336.002c-624.667 -83.333 -680.999 82 -168.999 496c139.333 -136.667 195.666 -302 168.999 -496z" />
    <glyph glyph-name="nine" unicode="9" horiz-adv-x="1064" 
d="M8 1395c-20.667 -447.333 171.668 -615.666 577.001 -504.999l-12 -96l-12 -36c-8.66699 -62 -20.667 -114 -36 -156v-60c-29.333 -143.333 -41.333 -263.666 -36 -360.999l24 -96l48 -84l72 60c27.333 65.333 59.333 117.333 96 156
c17.333 67.333 37.666 123.666 60.999 168.999l12 48l12 36l36 132v36l24 96v48l12 24l24 181l12 24c22 140 62 256 120 348c-1.33301 39.333 -17.333 63.333 -48 72v84c12.667 45.333 16.667 85.666 12 120.999c-14 8 -22 16 -24 24l-48 12c-78 34 -146.333 58 -205 72
c-110 73.333 -222 109.333 -336 108c-224.667 -80.667 -353 -233 -385 -457zM657.002 1323c-12 -76.667 -52 -116.667 -120 -120c-75.333 -36 -147.333 -44 -216 -24c-13.333 138 14.667 258 84 360c177.333 -8 261.333 -80 252 -216z" />
    <glyph glyph-name="colon" unicode=":" horiz-adv-x="231" 
 />
    <glyph glyph-name="semicolon" unicode=";" horiz-adv-x="237" 
 />
    <glyph glyph-name="less" unicode="&#x3c;" 
 />
    <glyph glyph-name="equal" unicode="=" 
 />
    <glyph glyph-name="greater" unicode="&#x3e;" 
 />
    <glyph glyph-name="question" unicode="?" horiz-adv-x="567" 
 />
    <glyph glyph-name="at" unicode="@" horiz-adv-x="579" 
 />
    <glyph glyph-name="A" unicode="A" horiz-adv-x="1117" 
d="M544 1693l-104 -180.999l-122 -364l-115 -70l-49 -123l13 -127c-54 -108.667 -100.667 -216.334 -140 -323.001l-26 -362c56 -69.333 116.333 -112.333 181 -129l129 129l115 405l299 60c-45.333 -276 -51 -406 -17 -390l94 -230c348 534 391 1076.67 129 1628l26 103
c-78 41.333 -138.333 84.333 -181 129zM554 908.001l109 260l63 -246z" />
    <glyph glyph-name="B" unicode="B" horiz-adv-x="1274" 
d="M216 1686l0.000976562 -78.999l-14 -91c0 -210 -34.667 -392.333 -104 -547c-24 -70.667 -15.333 -136 26 -196v-52l-26 -52c-1.33301 -50 -10 -93.667 -26 -131v-104l-13 -39v-91l-26 -104c-13.333 -30 -22 -60.667 -26 -92c176 -105.333 354 -131.333 534 -78
c278 -28 465 72 561 300c222 289.333 200 541.333 -66 756c272.667 224 299 402 79 534l13 39c-208 129.333 -412.333 194.666 -613 195.999c-124.667 -38 -224.334 -94.333 -299.001 -169zM763.001 1112c-106 -33.333 -197.333 -50.667 -274 -52v39l13 39v39v39l13 92
c0.666992 56 5 103.667 13 143c312 10 390.333 -103 235 -339zM802.001 486c-83.333 -150.667 -209.333 -185.333 -378 -104c-48.667 52 -40 165 26 339l39 13l39 13c116.667 0.666992 221 18 313 52c46.667 -114.667 33.667 -219 -39 -313z" />
    <glyph glyph-name="C" unicode="C" horiz-adv-x="1247" 
d="M469 1796c-451.333 -428.667 -575 -917.333 -371 -1466c73.333 -246 231.333 -354.667 474 -326c265.333 -14 443.333 89.667 534 311c-13.333 33.333 -33 48 -59 44c-322.667 -132 -535.334 -72.667 -638.001 178c-74.667 324 -25 605.333 149 844
c102 117.333 215.333 137 340 59c-18.667 -66.667 -8.66699 -121 30 -163l104 -14c333.333 234 274 431.333 -178 592h-44h-178c-59.333 -28 -113.666 -47.667 -162.999 -59z" />
    <glyph glyph-name="D" unicode="D" horiz-adv-x="1318" 
d="M185 1577c16 -7.33301 28.332 -21.667 36.999 -43l-12 -155l-13 -241l-24 -227c-15.333 -76 -23.666 -137.333 -24.999 -184c-30.667 -103.333 -43 -197.666 -37 -282.999c-48 -23.333 -84.667 -51.666 -110 -84.999c-13.333 -108.667 -13.333 -203 0 -283
c39.333 -33.333 72 -57 98 -71h37l37 14h37h36c46 12 91.333 16.667 136 14c44.667 22.667 85.334 37 122.001 43c456 3.33301 718.333 234.666 787 693.999c16.667 114 12.334 217.667 -12.999 311c-9.33301 9.33301 -13.333 19 -12 29l-24 28l-13 42
c-42.667 55.333 -75.334 107.333 -98.001 156c-38.667 32.667 -67.334 61 -86.001 85l-74 99c-73.333 51.333 -130.666 108 -171.999 170c-48.667 32 -85.334 70 -110.001 114l-49 -15l-25 15c-141.333 37.333 -260 51.333 -356 42
c-47.333 -90.667 -72 -180.334 -74 -269.001zM978.999 655.999c-154 -246.667 -330 -269.999 -528 -69.999c1.33301 71.333 9.33301 132.666 24 183.999v42c16.667 76.667 25 142.667 25 198l12 43v42v43l12 28l13 227c328.667 -115.333 476 -361 442 -737z" />
    <glyph glyph-name="E" unicode="E" horiz-adv-x="1070" 
d="M252 1814c-27.333 -62.667 -54.6689 -112.332 -82.002 -148.999l-13 -27c-31.333 -35.333 -54 -71.333 -68 -108c42.667 -82 60.667 -163.333 54 -244c-12.667 -117.333 -48.667 -212 -108 -284c-5.33301 -98 8.33398 -179.333 41.001 -244l-41 -230l-14 -95
c-20.667 -135.333 -25 -248.333 -13 -339c87.333 -30.667 173 -39.667 257 -27h41c169.333 -59.333 327.333 -82 474 -68c34 57.333 52 111.666 54 162.999c-76 54 -130 117.333 -162 190l-109 13c-84.667 26.667 -156.667 44.667 -216 54v41l13 27v41l27 108l27 95h41
l27 13h108c86 12.667 158.333 12.667 217 0c336.667 122 350.334 239.667 41.001 353l-68 -28h-41l-149 28l-135 27v40l13 27l14 244l41 14l54 13h108c123.333 30.667 227.333 48.667 312 54c98.667 148 40 261 -176 339l-82 -27h-108h-41l-40 -14l-27 14l-95 13h-41
c-42.667 9.33301 -78.667 14 -108 14z" />
    <glyph glyph-name="F" unicode="F" horiz-adv-x="1255" 
d="M178 1353c-12 -34.667 -16.335 -68.335 -13.002 -101.002c-13.333 -50 -21.666 -96 -24.999 -138c-70.667 -46.667 -116.667 -105.334 -138 -176.001v-126c58 -50 83 -104.333 75 -163c-0.666992 -41.333 -4.66699 -74.666 -12 -99.999v-101
c4 -129.333 -8.66699 -238 -38 -326c34 -30 55 -59.333 63 -88c124 -76 220.333 -34.333 289 125c-38 210.667 -17 399.334 63 566.001h37l101 -26h50l38 -12l37 -13l214 -25c68 -22.667 130.667 -35.334 188 -38.001c43.333 63.333 56 126.333 38 189
c-28 59.333 -57.333 105.333 -88 138c-598 62.667 -744.667 213.334 -440 452.001h88l76 -12c66.667 -21.333 125 -34 175 -38l164 -38c22 40.667 47 70 75 88c-6.66699 93.333 -27.667 173 -63 239l-125 38c-148 47.333 -273.667 72.333 -377 75
c-113.333 75.333 -230.666 113 -351.999 113c-94 -163.333 -127.333 -330.666 -100 -501.999z" />
    <glyph glyph-name="G" unicode="G" horiz-adv-x="1289" 
d="M198 248l179.999 -152.001c193.333 -125.333 373 -120.666 539 14.001c198.667 80.667 309 228 331 442c-54.667 353.333 -317 491.333 -787 414l-28 -55c-16 -52 -20.667 -98 -14 -138c14 -1.33301 28 3 42 13c36 -16.667 63.667 -39.667 83 -69
c16 -8.66699 25 -17.667 27 -27l42 -14l110 -69c36 -32.667 68.333 -55.667 97 -69c-108.667 -86.667 -223.667 -114.334 -345 -83.001l-56 97c-138 372.667 -50.333 676.334 263 911.001c111.333 -46.667 212.666 -69.667 303.999 -69
c76.667 46 136.334 96.667 179.001 152c-42.667 214.667 -194.667 316 -456 304c-715.333 -378.667 -885.666 -912.667 -510.999 -1602z" />
    <glyph glyph-name="H" unicode="H" horiz-adv-x="1310" 
d="M212 1734c-3.33301 -66 -12.0029 -121.666 -26.0029 -166.999v-38l-26 -103c-0.666992 -45.333 -5 -79.666 -13 -102.999c-6 -62 -14.333 -113.333 -25 -154v-38c-12.667 -35.333 -17 -69.666 -13 -102.999c-16 -50 -24.667 -97.333 -26 -142l-13 -89
c-18 -122.667 -39.333 -221.334 -64 -296.001l13 -244c9.33301 -12.667 13.666 -25.667 12.999 -39l13 -64l25 -115c42.667 16.667 77 33.667 103 51l13 38l128 270v39l13 25l13 52l39 244l25 -13l39 -13l25 -13c138 -42 249.667 -67.667 335 -77v-38
c30 -79.333 47 -148 51 -206c-7.33301 -152.667 14 -285.334 64 -398.001l103 128c12.667 44 25.334 78.333 38.001 103l26 39l13 38l13 52l13 38l25 39l13 38c6.66699 61.333 19.667 113 39 155l51 141v38v103c-15.333 29.333 -24 59.333 -26 90l13 51v39
c8.66699 40.667 13 75 13 103v38v39c8.66699 40.667 13 75 13 103v38v52v38v257c-168 133.333 -288 94.666 -360 -116.001l39 -51l13 -26v-77l-13 -38c12 -190 -5.33301 -357 -52 -501l-89 13l-90 12l-26 13h-39l-90 39l-128 51v52c14.667 47.333 23.334 90 26.001 128
c8 40.667 12 75 12 103l13 26v38l13 90c26.667 98.667 35.334 188.667 26.001 270c-49.333 48.667 -100.666 70 -153.999 64h-26c-41.333 -52 -84 -90.667 -128 -116z" />
    <glyph glyph-name="I" unicode="I" horiz-adv-x="1232" 
d="M301 1570c26.667 -50 44.668 -99.001 54.001 -147.001h40c101.333 44.667 194.666 67 279.999 67v-40c-24.667 -87.333 -38 -163 -40 -227l-27 -80l-26 -227l-14 -40l-13 -133l-13 -27c-4.66699 -96 -13.667 -176 -27 -240c-196.667 -42 -299 -10.667 -307 94
c-128.667 -70 -195.334 -172.333 -200.001 -307l53 -40l147 -54l40 -13l27 -13l40 -14l307 -80c10.667 -15.333 15 -33 13 -53l107 13l93 14c94.667 -7.33301 174.667 1.33398 240 26.001c18.667 42.667 32 82.667 40 120c-129.333 75.333 -222.666 164.333 -279.999 267
l13 54v53l14 67v40l13 53l13 40v53l14 54l13 146l13 54v40l14 26l40 267c251.333 -6.66699 371.333 69 360 227c-32.667 62 -63.667 111 -93 147l-40 13l-147 27c-49.333 -6.66699 -94 -6.66699 -134 0l-26 13h-40h-40h-40l-54 13c-117.333 -6 -219.333 3 -306 27
c-84 -78.667 -124.333 -172 -121 -280z" />
    <glyph glyph-name="J" unicode="J" horiz-adv-x="1525" 
d="M472 1833l-236.998 -14.001l-83 -28c2 -156.667 53 -277.667 153 -363c68 1.33301 123.667 20 167 56c87.333 15.333 162 20 224 14c-16 -449.333 -127.667 -835.666 -335 -1159c-47.333 -2 -84.666 -6.66699 -111.999 -14c-46.667 88.667 -93 158.667 -139 210l-98 14
c-40.667 -366.667 89.666 -548.334 390.999 -545.001l97 14c9.33301 16.667 18.666 26 27.999 28l28 28l84 56c31.333 43.333 64 76 98 98l111 223l14 42l14 28l56 195l42 112v42l14 28l28 111l14 28c50 159.333 73 294.333 69 405c198 -8 328.333 61.667 391 209
c-68 34.667 -123.667 67.334 -167 98.001c-92 24.667 -166.667 52.667 -224 84l-42 -28c-44 8.66699 -81 13.334 -111 14.001c-166.667 29.333 -306.334 38.666 -419.001 27.999z" />
    <glyph glyph-name="K" unicode="K" horiz-adv-x="1239" 
d="M236 1761c-13.333 -50 -21.998 -93.3359 -25.998 -130.003v-38c-19.333 -63.333 -27.666 -119.666 -24.999 -168.999c-16 -50 -24.667 -97.667 -26 -143c-54.667 -34.667 -93.667 -73.667 -117 -117l26 -116c-35.333 -75.333 -31 -144.666 13 -207.999l-13 -91l-13 -26
l-13 -77l-13 -104c2.66699 -80 -6 -149.333 -26 -208c24 -83.333 37 -152.333 39 -207l26 -117c26 -4.66699 47.667 12.666 65 51.999l26 26l13 26l26 13c16 51.333 37.333 94.333 64 129l13 39c26.667 68.667 52.667 125 78 169c5.33301 102 27 192.667 65 272l26 -51
l26 -26l26 -39l13 -39c45.333 -51.333 79.666 -99 102.999 -143l39 -91c33.333 -36 59.333 -70.667 78 -104l13 -38c69.333 -58 121.333 -114.333 156 -169l26 -13l77 -26c29.333 34 46.666 64.333 51.999 91l26 78c-23.333 48.667 -36.333 91.667 -39 129l-13 52
c-36 72.667 -61.667 133.334 -77 182.001c-15.333 8.66699 -24 17.334 -26 26.001l-26 39l-13 39c-15.333 8.66699 -24 17.334 -26 26.001l-13 26l-26 38c-74 101.333 -126 188 -156 260c287.333 77.333 464.666 241.666 531.999 492.999c-215.333 8 -401.333 -44 -558 -156
l-142 -52v52l13 52v39l13 39v39l39 207c-64 88 -142 140 -234 156z" />
    <glyph glyph-name="L" unicode="L" horiz-adv-x="1524" 
d="M442 1795c-14 -48 -28 -84.9961 -42 -110.996l14 -98l-14 -27c-16 -99.333 -39 -182.666 -69 -249.999l-14 -97l-56 -139c-24.667 -184.667 -80 -337.334 -166 -458.001c-20 -73.333 -48 -138 -84 -194c-5.33301 -106 18 -198.333 70 -277c6 -54 15.333 -100.333 28 -139
l166 97c69.333 3.33301 129.333 -1.33398 180 -14.001h42l69 -14h42c73.333 -18.667 138 -27.667 194 -27l181 -28h55l28 -14c126.667 28.667 237.667 38 333 28l83 125c-84.667 111.333 -191 189.666 -319 234.999l-111 -27l-42 14h-55l-70 13h-41l-42 14
c-48.667 1.33301 -85.667 6 -111 14c-88 5.33301 -162 14.666 -222 27.999l28 97v42l28 97l14 27l27 98l14 55l70 250l13 69l14 42l14 27l70 236v42l55 222c-102.667 51.333 -195 83.666 -277 96.999z" />
    <glyph glyph-name="M" unicode="M" horiz-adv-x="1532" 
d="M1344 1821l-176.003 -136.002c-48 -48 -84.333 -88.667 -109 -122c-60.667 -130 -137.667 -229.667 -231 -299c-96.667 132.667 -200.667 232.334 -312 299.001c0 68 -4.66699 122.333 -14 163l-149 108c-64 -76.667 -136.333 -99 -217 -67
c-44.667 -62.667 -72 -126.334 -82 -191.001c52.667 -80 75.334 -156.667 68.001 -230v-41c-12.667 -37.333 -17 -73.666 -13 -108.999l-28 -176c-2.66699 -70 -11.667 -129 -27 -177c0 -124 -18 -232.667 -54 -326l14 -95c14 -33.333 23 -65 27 -95l54 -245l27 14l68 82
l54 67l14 41l14 41l81 163l27 190v54l14 28l13 122v40v41l14 41c3.33301 74.667 12.333 138 27 190c123.333 -133.333 191.333 -282.666 204 -447.999c33.333 -41.333 56 -82 68 -122l54 13c9.33301 16 18.333 25 27 27l109 191l27 13l27 14l14 27l27 13
c33.333 44.667 65 81 95 109c0 -98.667 -9 -180 -27 -244v-41c-34 -127.333 -43 -245 -27 -353l-28 -82l28 -298l54 -14c258.667 344 371.667 756 339 1236c26.667 65.333 40.334 124 41.001 176c30.667 50 53.334 95.333 68.001 136c-19.333 103.333 -24 194 -14 272
c-58.667 23.333 -113 32.333 -163 27z" />
    <glyph glyph-name="N" unicode="N" horiz-adv-x="1220" 
d="M1135 1903c-12 -46 -24 -68.333 -36 -67l-36 -36c-26.667 -56 -62.667 -96 -108 -120l-36 -60l-12 -36c16.667 -29.333 20.667 -69.333 12 -120l-24 -132l-12 -36l-12 -60l-12 -36v-36l-24 -96c-26 -74.667 -42 -138.667 -48 -192l-24 36c-11.333 40 -23.333 72 -36 96
l-108 300c36.667 88 48.667 172 36 252c-92.667 62.667 -184.667 78.667 -276 48c-63.333 -44 -111.333 -88 -144 -132l-24 -60c-18 -66 -26 -142 -24 -228c-20 -44 -40 -80 -60 -108v-48l-12 -84l-12 -84l-12 -72l-12 -36l-12 -84v-84l-12 -36
c-1.33301 -46 -5.33301 -86 -12 -120v-36c-20 -79.333 -32 -147.333 -36 -204c59.333 -58 95.333 -122 108 -192c54 66.667 114 114.667 180 144c15.333 204 67.333 380 156 528l24 -36l24 -36l12 -24l48 -84c36.667 -129.333 92.667 -237.333 168 -324
c65.333 -12.667 125.333 -12.667 180 0c261.333 325.333 361.333 677.333 300 1056c34 242 14 450 -60 624h-12h12z" />
    <glyph glyph-name="O" unicode="O" horiz-adv-x="1422" 
d="M798 1819l-42.999 0.00195312h-44c-113.333 -66.667 -190.333 -73.667 -231 -21l-55 -20l-76 -191l-29 -29l-145 -188l-15 -44l-43 -116l-15 -43l-101 -261l58 -174c-70.667 -332.667 35.666 -569.667 318.999 -711c56.667 -14.667 109.667 -19.334 159 -14.001
c474.667 206 764.667 549 870 1029c-26.667 419.333 -220 690 -580 812c-9.33301 -16.667 -19 -26.334 -29 -29.001zM987.001 1007c-82 -257.333 -217.333 -455.334 -406 -594.001c-58 121.333 -77.333 242 -58 362c-18.667 90.667 -23.667 168 -15 232l44 58l72 116
c54 54 92.667 107.333 116 160c134 -27.333 216.333 -138.666 247 -333.999z" />
    <glyph glyph-name="P" unicode="P" horiz-adv-x="1354" 
d="M178 1449c-9.33301 -50 -13.666 -94.333 -12.999 -133c-20.667 -63.333 -29.667 -121 -27 -173c-154.667 -120.667 -172.334 -254 -53.001 -400l-13 -66c0.666992 -92 -21.666 -172 -66.999 -240c98.667 -611.333 231.667 -589 399 67c4 93.333 17.333 173 40 239
c568 -106 852 58.333 852 493c-76.667 414 -374 600.333 -892 559c-38.667 22 -87.334 39.667 -146.001 53c-190 -131.333 -216.667 -264.333 -80 -399zM937 1116c-145.333 -106 -300.667 -128.333 -466 -67l13 40v67l13 40v40v40l27 173
c304 24.667 441.667 -86.333 413 -333z" />
    <glyph glyph-name="Q" unicode="Q" horiz-adv-x="1664" 
d="M341 1542c-66.667 52.667 -129.335 48.3311 -188.002 -13.002c-20.667 -52.667 -43 -93 -67 -121c58.667 -222.667 36 -411 -68 -565c-37.333 -185.333 12 -270.666 148 -255.999c37.333 -219.333 131.666 -389.666 282.999 -510.999c210 -73.333 403 -73.333 579 0h80
c58 -63.333 125.333 -90.333 202 -81c28.667 104 33.334 198.333 14.001 283c135.333 148 220.333 305 255 471c66.667 250 44.334 474 -66.999 672v95c-183.333 234 -407.666 346 -672.999 336c-204 -62 -370 -165.333 -498 -310zM1297 680.997
c-43.333 -52.667 -83.6689 -92.999 -121.002 -120.999l-121 242c-84.667 -16.667 -156.667 -48 -216 -94c-38 -26 -64.667 -53 -80 -81c66.667 -88 111.334 -173 134.001 -255c-290 -72 -424.667 49 -404 363c-28 405.333 106.667 670 404 794
c308.667 -46.667 443.334 -329.334 404.001 -848.001z" />
    <glyph glyph-name="R" unicode="R" horiz-adv-x="1179" 
d="M81 975c-21.333 -100.667 -53.666 -183.665 -96.999 -248.998c6 -69.333 22.333 -125 49 -167l12 -41v-195c10 -122.667 14 -224.334 12 -305.001c14 -9.33301 22 -18.666 24 -27.999c49.333 -22 98 -26.333 146 -13c14.667 32.667 31 60.334 49 83.001l12 28
c18 109.333 46.333 197 85 263l61 -125l48 -27l49 -56l60 -28l73 -41l49 -42c64 -24.667 116.667 -52.334 158 -83.001l48 -28l49 -14l97 -69l37 -14l24 -28l36 -14l37 -13l194 -125l158 -28l61 97v97c-14 9.33301 -22 18.666 -24 27.999
c-14.667 9.33301 -23 18.666 -25 27.999l-24 14l-36 27c-38 31.333 -66.333 63.666 -85 96.999c-48 27.333 -84.667 59.666 -110 96.999l-24 14l-24 14l-73 56l-73 27l-24 28l-25 14c-85.333 38.667 -154 89.667 -206 153l-25 13l-24 14l-73 56
c-80.667 60 -141.334 129.333 -182.001 208l-61 55c496 232.667 678.333 519.334 547 860.001c-222 161.333 -444.667 240 -668 236c-282.667 -45.333 -380 -336.666 -292 -873.999zM385 1242v36l36 219c227.333 -58.667 215.333 -143.667 -36 -255z" />
    <glyph glyph-name="S" unicode="S" horiz-adv-x="1427" 
d="M271 1318c57.333 -279.333 304.999 -462.002 742.999 -548.002c40.667 -38.667 62.334 -82 65.001 -130c-130.667 -136 -274 -227.333 -430 -274c-83.333 -54 -161.666 -88.667 -234.999 -104c-8.66699 -10 -17.334 -14.333 -26.001 -13
c-92.667 -52 -175.334 -86.667 -248.001 -104c-58.667 -36.667 -102 -75.667 -130 -117c591.333 -74.667 1039 73 1343 443c150.667 380.667 -66.666 632.334 -651.999 755.001c-44.667 32.667 -79.334 67.667 -104.001 105
c116.667 152.667 277.334 213.334 482.001 182.001c164 220 116.333 333 -143 339c-412 -41.333 -633.667 -219.333 -665 -534z" />
    <glyph glyph-name="T" unicode="T" horiz-adv-x="1028" 
d="M-4 1481c48 -150.667 152.332 -218.666 312.999 -203.999c-12 -68.667 -16.333 -128 -13 -178v-408c2.66699 -106 -2 -197 -14 -273c13.333 -66 13.333 -125 0 -177c11.333 -50.667 16 -100.334 14 -149.001l27 13c123.333 -166 232.333 -125 327 123v109l-14 95l14 41
v95l13 82c26 124 35 228.333 27 313v41c42.667 126.667 61 244.667 55 354c164.667 39.333 246.334 144 245.001 314c-173.333 140.667 -359.333 199.667 -558 177c-220 -55.333 -365.333 -178 -436 -368z" />
    <glyph glyph-name="U" unicode="U" horiz-adv-x="1393" 
d="M1009 1764l-29.9971 -83.999l-30 -69l-15 -70l-30 -70l-30 -70l-15 -70l-15 -98c-26.667 -52 -46.667 -103 -60 -153c-14.667 -108 -49.667 -196.667 -105 -266c2.66699 -65.333 -7.33301 -121 -30 -167c-54.667 -42.667 -104.334 -33.334 -149.001 27.999l-45 70v41v56
c14 78 19 143.333 15 196v140l15 279v42c-44.667 81.333 -69.667 160.333 -75 237c-42.667 42 -87.667 70 -135 84l-121 -140c-110.667 -353.333 -143.334 -604 -98.001 -752l-6 -267c-8.66699 -85.333 -8.66699 -155.333 0 -210c102 -346 316.667 -443.667 644 -293
l142 -190c119.333 37.333 221.666 110 306.999 218l15 56v42c-28.667 103.333 -38.667 196.333 -30 279v84c23.333 56.667 38.333 107.667 45 153l15 70c20.667 55.333 30.667 106.666 30 153.999l15 42l30 140c74 180.667 109 343.334 105 488.001
c-53.333 100.667 -133.333 142.667 -240 126l-15 42z" />
    <glyph glyph-name="V" unicode="V" horiz-adv-x="1221" 
d="M2 1683c31.333 -56 49.3369 -136.667 54.0039 -242l-14 -296v-444c31.333 -131.333 36 -248 14 -350c59.333 -97.333 90.666 -191.333 93.999 -282c87.333 -72.667 177 -90.667 269 -54c273.333 107.333 434.666 291 483.999 551l27 14
c162.667 319.333 248 606.333 256 861c-27.333 18 -49.666 22.333 -66.999 13l-41 -53l-27 -41l-40 -54l-94 -161l-40 -54l-41 -40l-40 -41l-14 -27c-42.667 -84 -92 -151 -148 -201c-44.667 -98 -98.334 -174.333 -161.001 -229c-16.667 -1.33301 -30 3 -40 13
c-14.667 81.333 -19.334 157.666 -14.001 228.999c-22 44.667 -31 85 -27 121v148v67v175v54v41c22.667 161.333 31.667 291.333 27 390c-62.667 42.667 -125.334 65 -188.001 67c-108 -33.333 -184.333 -91.666 -229 -174.999z" />
    <glyph glyph-name="W" unicode="W" horiz-adv-x="1724" 
d="M-3 1636c10.667 -89.333 42.668 -164.998 96.001 -226.998l12 -84l12 -72c16 -48 24 -92 24 -132c29.333 -94.667 45.333 -178.334 48 -251.001c56 -154 80 -294 72 -420c20 -32 31.667 -64 35 -96c14 -120.667 46 -224.334 96 -311.001h96c37.333 42 69.333 74 96 96
l24 60c27.333 36.667 47.333 68.334 60 95.001v36l24 24c24 90.667 52 162.667 84 216c12 -44 20 -84 24 -120c36.667 -76.667 52.334 -148.334 47.001 -215.001l24 -24l12 -36c39.333 -75.333 67.333 -139.333 84 -192c309.333 244 489 539.667 539 887
c73.333 163.333 105.333 323 96 479c37.333 94 57.333 181.667 60 263c-64 -40.667 -112 -88.334 -144 -143.001l-24 -48l-24 -36l-12 -36l-24 -24l-24 -48c-20.667 -63.333 -44.334 -115.333 -71.001 -156l-12 -36l-12 -24l-12 -36l-12 -24
c-20.667 -39.333 -36.667 -75 -48 -107l-60 -120l-12 -24l-12 -24c-27.333 -60 -55.333 -108 -84 -144l-12 48l-12 24c-16 75.333 -36 139.333 -60 192c-21.333 60.667 -41.333 108.334 -60 143.001c25.333 162 29.333 302 12 420c-6.66699 14.667 -14.667 22.667 -24 24
l-36 -36l-24 -24c-108.667 17.333 -208.334 -14.667 -299.001 -96l-36 -72c62 -141.333 58 -269 -12 -383l-12 48l-12 71c-8.66699 21.333 -12.667 41.333 -12 60l-24 60v60c-8.66699 12 -12.667 24 -12 36c-21.333 79.333 -33.333 147.333 -36 204
c-15.333 46 -23.333 86 -24 120l-12 48l-48 275c-56 35.333 -111.667 51.333 -167 48c-81.333 -60.667 -133.333 -132.667 -156 -216z" />
    <glyph glyph-name="X" unicode="X" horiz-adv-x="1328" 
d="M1192 1822c-8 -13.333 -17.0039 -21.667 -27.0039 -25l-18 -39l-19 -25l-18 -26l-101 -153l-27 -26c-19.333 -38.667 -40.666 -64.334 -63.999 -77.001c-6 -14.667 -12.333 -23 -19 -25c-56 -86 -107.667 -150 -155 -192c-62 68 -107.667 149 -137 243
c-65.333 85.333 -102 183.333 -110 294c-62.667 -6.66699 -114.667 -23.667 -156 -51c-66.667 -95.333 -94 -202 -82 -320c58 -64 100.667 -128 128 -192c62 -63.333 110.667 -136 146 -218l-18 -25l-27 -13l-19 -38l-36 -26l-19 -38l-18 -26l-55 -51
c-6 -14.667 -12 -23.334 -18 -26.001c-21.333 -40 -39.666 -69.667 -54.999 -89l-18 -13c-45.333 -96 -94.333 -168.667 -147 -218c-29.333 -80.667 -56.666 -144.667 -81.999 -192c-14.667 -88 -17.667 -164.667 -9 -230c43.333 50.667 83 84.667 119 102l27 52l37 25
l45 51l28 26l37 51l36 26c32.667 48 66.334 82 101.001 102c46.667 84 98.334 148 155.001 192c32 54.667 65.667 97.334 101 128.001l9 -38l19 -13l118 -230c7.33301 -8.66699 10.666 -17.334 9.99902 -26.001c40 -33.333 70.333 -71.666 91 -114.999l28 -26l9 -25
c24 -15.333 42.333 -36.666 55 -63.999c33.333 -22 60.666 -47.667 81.999 -77h82v77l-36 89v39l-18 25l-10 39l-18 38l-9 38c-25.333 58 -43.666 109.333 -54.999 154l-18 13l-9 38l-19 13l-9 38l-18 13l-9 39c-33.333 40 -58 82.333 -74 127l-18 13v39l37 25l36 39l37 64
c30.667 26 55 51.333 73 76l28 39l27 25c30.667 57.333 61.334 100 92.001 128l9 26l18 26l18 12c31.333 57.333 62 104.333 92 141l-9 39c15.333 62.667 21.333 118 18 166c-38.667 38 -78.334 59.333 -119.001 64c-16.667 -13.333 -32 -22 -46 -26z" />
    <glyph glyph-name="Y" unicode="Y" horiz-adv-x="1187" 
d="M265 1822c-117.333 -58 -203.667 -131.331 -259 -219.998l13 -65h39c14 -8.66699 22.667 -17.334 26 -26.001l38 -25l26 -26l39 -26l26 -26l26 -39c69.333 -41.333 121 -84.333 155 -129c-5.33301 -54.667 -1 -102.334 13 -143.001c42 -61.333 72.333 -117.333 91 -168
l-13 -39c-10 -65.333 -23 -117 -39 -155c-10.667 -118.667 -36.667 -218 -78 -298l13 -155c-9.33301 -98.667 16.667 -176.334 78 -233.001c5.33301 -65.333 22.666 -74 51.999 -26l26 26l13 26l38 90l26 13c30 66.667 60.333 118.667 91 156l26 129l91 285v142
c22 69.333 34.667 129.666 38 180.999c18.667 68.667 27.334 129.334 26.001 182.001c169.333 143.333 264.333 307 285 491c-190 56.667 -367 -33.666 -531 -270.999c-150 99.333 -253.333 220 -310 362l-52 13z" />
    <glyph glyph-name="Z" unicode="Z" horiz-adv-x="1289" 
d="M317 1451c14.667 6.66699 22.6689 14.667 24.002 24l37 -24c13.333 -8 21.333 -16 24 -24c151.333 -55.333 264.666 -116.333 339.999 -183l-36 -24l-25 -48l-36 -49l-37 -37l-36 -48l-24 -37l-37 -24c-8 -14 -16 -22 -24 -24l-37 -49l-72 -61
c-45.333 -64.667 -86 -113 -122 -145l-24 -49c-20 -49.333 -40.333 -89.666 -61 -120.999c-37.333 -143.333 -94 -261 -170 -353v-48c26.667 -53.333 59 -94 97 -122c102.667 19.333 187.667 55.666 255 108.999l25 -12h48c113.333 -21.333 206.666 -33.333 279.999 -36
c184.667 -63.333 354.667 -83.666 510 -60.999c54 44 90.333 92.667 109 146l-24 12l-25 12l-12 24c-62.667 20.667 -111 45 -145 73l-37 13l-49 12l-97 36l-36 12l-49 12l-24 13c-12 -9.33301 -24 -13.666 -36 -12.999l-25 13l-24 12l-194 36v37
c99.333 224 241 394 425 510l12 24l24 12l12 25l25 12c29.333 39.333 57.666 71.666 84.999 96.999c42 11.333 78.333 31.666 109 60.999c12.667 53.333 33 98 61 134c-106.667 194 -264.667 303.333 -474 328c-117.333 109.333 -243 174 -377 194
c-165.333 -102 -209.666 -235.667 -132.999 -401z" />
    <glyph glyph-name="bracketleft" unicode="[" horiz-adv-x="282" 
 />
    <glyph glyph-name="backslash" unicode="\" horiz-adv-x="318" 
 />
    <glyph glyph-name="bracketright" unicode="]" horiz-adv-x="312" 
 />
    <glyph glyph-name="asciicircum" unicode="^" horiz-adv-x="330" 
 />
    <glyph glyph-name="underscore" unicode="_" horiz-adv-x="490" 
 />
    <glyph glyph-name="grave" unicode="`" horiz-adv-x="357" 
 />
    <glyph glyph-name="a" unicode="a" horiz-adv-x="1117" 
d="M544 1693l-104 -180.999l-122 -364l-115 -70l-49 -123l13 -127c-54 -108.667 -100.667 -216.334 -140 -323.001l-26 -362c56 -69.333 116.333 -112.333 181 -129l129 129l115 405l299 60c-45.333 -276 -51 -406 -17 -390l94 -230c348 534 391 1076.67 129 1628l26 103
c-78 41.333 -138.333 84.333 -181 129zM554 908.001l109 260l63 -246z" />
    <glyph glyph-name="b" unicode="b" horiz-adv-x="1274" 
d="M216 1686l0.000976562 -78.999l-14 -91c0 -210 -34.667 -392.333 -104 -547c-24 -70.667 -15.333 -136 26 -196v-52l-26 -52c-1.33301 -50 -10 -93.667 -26 -131v-104l-13 -39v-91l-26 -104c-13.333 -30 -22 -60.667 -26 -92c176 -105.333 354 -131.333 534 -78
c278 -28 465 72 561 300c222 289.333 200 541.333 -66 756c272.667 224 299 402 79 534l13 39c-208 129.333 -412.333 194.666 -613 195.999c-124.667 -38 -224.334 -94.333 -299.001 -169zM763.001 1112c-106 -33.333 -197.333 -50.667 -274 -52v39l13 39v39v39l13 92
c0.666992 56 5 103.667 13 143c312 10 390.333 -103 235 -339zM802.001 486c-83.333 -150.667 -209.333 -185.333 -378 -104c-48.667 52 -40 165 26 339l39 13l39 13c116.667 0.666992 221 18 313 52c46.667 -114.667 33.667 -219 -39 -313z" />
    <glyph glyph-name="c" unicode="c" horiz-adv-x="1247" 
d="M469 1796c-451.333 -428.667 -575 -917.333 -371 -1466c73.333 -246 231.333 -354.667 474 -326c265.333 -14 443.333 89.667 534 311c-13.333 33.333 -33 48 -59 44c-322.667 -132 -535.334 -72.667 -638.001 178c-74.667 324 -25 605.333 149 844
c102 117.333 215.333 137 340 59c-18.667 -66.667 -8.66699 -121 30 -163l104 -14c333.333 234 274 431.333 -178 592h-44h-178c-59.333 -28 -113.666 -47.667 -162.999 -59z" />
    <glyph glyph-name="d" unicode="d" horiz-adv-x="1318" 
d="M185 1577c16 -7.33301 28.332 -21.667 36.999 -43l-12 -155l-13 -241l-24 -227c-15.333 -76 -23.666 -137.333 -24.999 -184c-30.667 -103.333 -43 -197.666 -37 -282.999c-48 -23.333 -84.667 -51.666 -110 -84.999c-13.333 -108.667 -13.333 -203 0 -283
c39.333 -33.333 72 -57 98 -71h37l37 14h37h36c46 12 91.333 16.667 136 14c44.667 22.667 85.334 37 122.001 43c456 3.33301 718.333 234.666 787 693.999c16.667 114 12.334 217.667 -12.999 311c-9.33301 9.33301 -13.333 19 -12 29l-24 28l-13 42
c-42.667 55.333 -75.334 107.333 -98.001 156c-38.667 32.667 -67.334 61 -86.001 85l-74 99c-73.333 51.333 -130.666 108 -171.999 170c-48.667 32 -85.334 70 -110.001 114l-49 -15l-25 15c-141.333 37.333 -260 51.333 -356 42
c-47.333 -90.667 -72 -180.334 -74 -269.001zM978.999 655.999c-154 -246.667 -330 -269.999 -528 -69.999c1.33301 71.333 9.33301 132.666 24 183.999v42c16.667 76.667 25 142.667 25 198l12 43v42v43l12 28l13 227c328.667 -115.333 476 -361 442 -737z" />
    <glyph glyph-name="e" unicode="e" horiz-adv-x="1070" 
d="M252 1814c-27.333 -62.667 -54.6689 -112.332 -82.002 -148.999l-13 -27c-31.333 -35.333 -54 -71.333 -68 -108c42.667 -82 60.667 -163.333 54 -244c-12.667 -117.333 -48.667 -212 -108 -284c-5.33301 -98 8.33398 -179.333 41.001 -244l-41 -230l-14 -95
c-20.667 -135.333 -25 -248.333 -13 -339c87.333 -30.667 173 -39.667 257 -27h41c169.333 -59.333 327.333 -82 474 -68c34 57.333 52 111.666 54 162.999c-76 54 -130 117.333 -162 190l-109 13c-84.667 26.667 -156.667 44.667 -216 54v41l13 27v41l27 108l27 95h41
l27 13h108c86 12.667 158.333 12.667 217 0c336.667 122 350.334 239.667 41.001 353l-68 -28h-41l-149 28l-135 27v40l13 27l14 244l41 14l54 13h108c123.333 30.667 227.333 48.667 312 54c98.667 148 40 261 -176 339l-82 -27h-108h-41l-40 -14l-27 14l-95 13h-41
c-42.667 9.33301 -78.667 14 -108 14z" />
    <glyph glyph-name="f" unicode="f" horiz-adv-x="1255" 
d="M178 1353c-12 -34.667 -16.335 -68.335 -13.002 -101.002c-13.333 -50 -21.666 -96 -24.999 -138c-70.667 -46.667 -116.667 -105.334 -138 -176.001v-126c58 -50 83 -104.333 75 -163c-0.666992 -41.333 -4.66699 -74.666 -12 -99.999v-101
c4 -129.333 -8.66699 -238 -38 -326c34 -30 55 -59.333 63 -88c124 -76 220.333 -34.333 289 125c-38 210.667 -17 399.334 63 566.001h37l101 -26h50l38 -12l37 -13l214 -25c68 -22.667 130.667 -35.334 188 -38.001c43.333 63.333 56 126.333 38 189
c-28 59.333 -57.333 105.333 -88 138c-598 62.667 -744.667 213.334 -440 452.001h88l76 -12c66.667 -21.333 125 -34 175 -38l164 -38c22 40.667 47 70 75 88c-6.66699 93.333 -27.667 173 -63 239l-125 38c-148 47.333 -273.667 72.333 -377 75
c-113.333 75.333 -230.666 113 -351.999 113c-94 -163.333 -127.333 -330.666 -100 -501.999z" />
    <glyph glyph-name="g" unicode="g" horiz-adv-x="1289" 
d="M198 248l179.999 -152.001c193.333 -125.333 373 -120.666 539 14.001c198.667 80.667 309 228 331 442c-54.667 353.333 -317 491.333 -787 414l-28 -55c-16 -52 -20.667 -98 -14 -138c14 -1.33301 28 3 42 13c36 -16.667 63.667 -39.667 83 -69
c16 -8.66699 25 -17.667 27 -27l42 -14l110 -69c36 -32.667 68.333 -55.667 97 -69c-108.667 -86.667 -223.667 -114.334 -345 -83.001l-56 97c-138 372.667 -50.333 676.334 263 911.001c111.333 -46.667 212.666 -69.667 303.999 -69
c76.667 46 136.334 96.667 179.001 152c-42.667 214.667 -194.667 316 -456 304c-715.333 -378.667 -885.666 -912.667 -510.999 -1602z" />
    <glyph glyph-name="h" unicode="h" horiz-adv-x="1310" 
d="M212 1734c-3.33301 -66 -12.0029 -121.666 -26.0029 -166.999v-38l-26 -103c-0.666992 -45.333 -5 -79.666 -13 -102.999c-6 -62 -14.333 -113.333 -25 -154v-38c-12.667 -35.333 -17 -69.666 -13 -102.999c-16 -50 -24.667 -97.333 -26 -142l-13 -89
c-18 -122.667 -39.333 -221.334 -64 -296.001l13 -244c9.33301 -12.667 13.666 -25.667 12.999 -39l13 -64l25 -115c42.667 16.667 77 33.667 103 51l13 38l128 270v39l13 25l13 52l39 244l25 -13l39 -13l25 -13c138 -42 249.667 -67.667 335 -77v-38
c30 -79.333 47 -148 51 -206c-7.33301 -152.667 14 -285.334 64 -398.001l103 128c12.667 44 25.334 78.333 38.001 103l26 39l13 38l13 52l13 38l25 39l13 38c6.66699 61.333 19.667 113 39 155l51 141v38v103c-15.333 29.333 -24 59.333 -26 90l13 51v39
c8.66699 40.667 13 75 13 103v38v39c8.66699 40.667 13 75 13 103v38v52v38v257c-168 133.333 -288 94.666 -360 -116.001l39 -51l13 -26v-77l-13 -38c12 -190 -5.33301 -357 -52 -501l-89 13l-90 12l-26 13h-39l-90 39l-128 51v52c14.667 47.333 23.334 90 26.001 128
c8 40.667 12 75 12 103l13 26v38l13 90c26.667 98.667 35.334 188.667 26.001 270c-49.333 48.667 -100.666 70 -153.999 64h-26c-41.333 -52 -84 -90.667 -128 -116z" />
    <glyph glyph-name="i" unicode="i" horiz-adv-x="1232" 
d="M301 1570c26.667 -50 44.668 -99.001 54.001 -147.001h40c101.333 44.667 194.666 67 279.999 67v-40c-24.667 -87.333 -38 -163 -40 -227l-27 -80l-26 -227l-14 -40l-13 -133l-13 -27c-4.66699 -96 -13.667 -176 -27 -240c-196.667 -42 -299 -10.667 -307 94
c-128.667 -70 -195.334 -172.333 -200.001 -307l53 -40l147 -54l40 -13l27 -13l40 -14l307 -80c10.667 -15.333 15 -33 13 -53l107 13l93 14c94.667 -7.33301 174.667 1.33398 240 26.001c18.667 42.667 32 82.667 40 120c-129.333 75.333 -222.666 164.333 -279.999 267
l13 54v53l14 67v40l13 53l13 40v53l14 54l13 146l13 54v40l14 26l40 267c251.333 -6.66699 371.333 69 360 227c-32.667 62 -63.667 111 -93 147l-40 13l-147 27c-49.333 -6.66699 -94 -6.66699 -134 0l-26 13h-40h-40h-40l-54 13c-117.333 -6 -219.333 3 -306 27
c-84 -78.667 -124.333 -172 -121 -280z" />
    <glyph glyph-name="j" unicode="j" horiz-adv-x="1525" 
d="M472 1833l-236.998 -14.001l-83 -28c2 -156.667 53 -277.667 153 -363c68 1.33301 123.667 20 167 56c87.333 15.333 162 20 224 14c-16 -449.333 -127.667 -835.666 -335 -1159c-47.333 -2 -84.666 -6.66699 -111.999 -14c-46.667 88.667 -93 158.667 -139 210l-98 14
c-40.667 -366.667 89.666 -548.334 390.999 -545.001l97 14c9.33301 16.667 18.666 26 27.999 28l28 28l84 56c31.333 43.333 64 76 98 98l111 223l14 42l14 28l56 195l42 112v42l14 28l28 111l14 28c50 159.333 73 294.333 69 405c198 -8 328.333 61.667 391 209
c-68 34.667 -123.667 67.334 -167 98.001c-92 24.667 -166.667 52.667 -224 84l-42 -28c-44 8.66699 -81 13.334 -111 14.001c-166.667 29.333 -306.334 38.666 -419.001 27.999z" />
    <glyph glyph-name="k" unicode="k" horiz-adv-x="1239" 
d="M236 1761c-13.333 -50 -21.998 -93.3359 -25.998 -130.003v-38c-19.333 -63.333 -27.666 -119.666 -24.999 -168.999c-16 -50 -24.667 -97.667 -26 -143c-54.667 -34.667 -93.667 -73.667 -117 -117l26 -116c-35.333 -75.333 -31 -144.666 13 -207.999l-13 -91l-13 -26
l-13 -77l-13 -104c2.66699 -80 -6 -149.333 -26 -208c24 -83.333 37 -152.333 39 -207l26 -117c26 -4.66699 47.667 12.666 65 51.999l26 26l13 26l26 13c16 51.333 37.333 94.333 64 129l13 39c26.667 68.667 52.667 125 78 169c5.33301 102 27 192.667 65 272l26 -51
l26 -26l26 -39l13 -39c45.333 -51.333 79.666 -99 102.999 -143l39 -91c33.333 -36 59.333 -70.667 78 -104l13 -38c69.333 -58 121.333 -114.333 156 -169l26 -13l77 -26c29.333 34 46.666 64.333 51.999 91l26 78c-23.333 48.667 -36.333 91.667 -39 129l-13 52
c-36 72.667 -61.667 133.334 -77 182.001c-15.333 8.66699 -24 17.334 -26 26.001l-26 39l-13 39c-15.333 8.66699 -24 17.334 -26 26.001l-13 26l-26 38c-74 101.333 -126 188 -156 260c287.333 77.333 464.666 241.666 531.999 492.999c-215.333 8 -401.333 -44 -558 -156
l-142 -52v52l13 52v39l13 39v39l39 207c-64 88 -142 140 -234 156z" />
    <glyph glyph-name="l" unicode="l" horiz-adv-x="1524" 
d="M442 1795c-14 -48 -28 -84.9961 -42 -110.996l14 -98l-14 -27c-16 -99.333 -39 -182.666 -69 -249.999l-14 -97l-56 -139c-24.667 -184.667 -80 -337.334 -166 -458.001c-20 -73.333 -48 -138 -84 -194c-5.33301 -106 18 -198.333 70 -277c6 -54 15.333 -100.333 28 -139
l166 97c69.333 3.33301 129.333 -1.33398 180 -14.001h42l69 -14h42c73.333 -18.667 138 -27.667 194 -27l181 -28h55l28 -14c126.667 28.667 237.667 38 333 28l83 125c-84.667 111.333 -191 189.666 -319 234.999l-111 -27l-42 14h-55l-70 13h-41l-42 14
c-48.667 1.33301 -85.667 6 -111 14c-88 5.33301 -162 14.666 -222 27.999l28 97v42l28 97l14 27l27 98l14 55l70 250l13 69l14 42l14 27l70 236v42l55 222c-102.667 51.333 -195 83.666 -277 96.999z" />
    <glyph glyph-name="m" unicode="m" horiz-adv-x="1532" 
d="M1344 1821l-176.003 -136.002c-48 -48 -84.333 -88.667 -109 -122c-60.667 -130 -137.667 -229.667 -231 -299c-96.667 132.667 -200.667 232.334 -312 299.001c0 68 -4.66699 122.333 -14 163l-149 108c-64 -76.667 -136.333 -99 -217 -67
c-44.667 -62.667 -72 -126.334 -82 -191.001c52.667 -80 75.334 -156.667 68.001 -230v-41c-12.667 -37.333 -17 -73.666 -13 -108.999l-28 -176c-2.66699 -70 -11.667 -129 -27 -177c0 -124 -18 -232.667 -54 -326l14 -95c14 -33.333 23 -65 27 -95l54 -245l27 14l68 82
l54 67l14 41l14 41l81 163l27 190v54l14 28l13 122v40v41l14 41c3.33301 74.667 12.333 138 27 190c123.333 -133.333 191.333 -282.666 204 -447.999c33.333 -41.333 56 -82 68 -122l54 13c9.33301 16 18.333 25 27 27l109 191l27 13l27 14l14 27l27 13
c33.333 44.667 65 81 95 109c0 -98.667 -9 -180 -27 -244v-41c-34 -127.333 -43 -245 -27 -353l-28 -82l28 -298l54 -14c258.667 344 371.667 756 339 1236c26.667 65.333 40.334 124 41.001 176c30.667 50 53.334 95.333 68.001 136c-19.333 103.333 -24 194 -14 272
c-58.667 23.333 -113 32.333 -163 27z" />
    <glyph glyph-name="n" unicode="n" horiz-adv-x="1220" 
d="M1135 1903c-12 -46 -24 -68.333 -36 -67l-36 -36c-26.667 -56 -62.667 -96 -108 -120l-36 -60l-12 -36c16.667 -29.333 20.667 -69.333 12 -120l-24 -132l-12 -36l-12 -60l-12 -36v-36l-24 -96c-26 -74.667 -42 -138.667 -48 -192l-24 36c-11.333 40 -23.333 72 -36 96
l-108 300c36.667 88 48.667 172 36 252c-92.667 62.667 -184.667 78.667 -276 48c-63.333 -44 -111.333 -88 -144 -132l-24 -60c-18 -66 -26 -142 -24 -228c-20 -44 -40 -80 -60 -108v-48l-12 -84l-12 -84l-12 -72l-12 -36l-12 -84v-84l-12 -36
c-1.33301 -46 -5.33301 -86 -12 -120v-36c-20 -79.333 -32 -147.333 -36 -204c59.333 -58 95.333 -122 108 -192c54 66.667 114 114.667 180 144c15.333 204 67.333 380 156 528l24 -36l24 -36l12 -24l48 -84c36.667 -129.333 92.667 -237.333 168 -324
c65.333 -12.667 125.333 -12.667 180 0c261.333 325.333 361.333 677.333 300 1056c34 242 14 450 -60 624h-12h12z" />
    <glyph glyph-name="o" unicode="o" horiz-adv-x="1422" 
d="M798 1819l-42.999 0.00195312h-44c-113.333 -66.667 -190.333 -73.667 -231 -21l-55 -20l-76 -191l-29 -29l-145 -188l-15 -44l-43 -116l-15 -43l-101 -261l58 -174c-70.667 -332.667 35.666 -569.667 318.999 -711c56.667 -14.667 109.667 -19.334 159 -14.001
c474.667 206 764.667 549 870 1029c-26.667 419.333 -220 690 -580 812c-9.33301 -16.667 -19 -26.334 -29 -29.001zM987.001 1007c-82 -257.333 -217.333 -455.334 -406 -594.001c-58 121.333 -77.333 242 -58 362c-18.667 90.667 -23.667 168 -15 232l44 58l72 116
c54 54 92.667 107.333 116 160c134 -27.333 216.333 -138.666 247 -333.999z" />
    <glyph glyph-name="p" unicode="p" horiz-adv-x="1354" 
d="M178 1449c-9.33301 -50 -13.666 -94.333 -12.999 -133c-20.667 -63.333 -29.667 -121 -27 -173c-154.667 -120.667 -172.334 -254 -53.001 -400l-13 -66c0.666992 -92 -21.666 -172 -66.999 -240c98.667 -611.333 231.667 -589 399 67c4 93.333 17.333 173 40 239
c568 -106 852 58.333 852 493c-76.667 414 -374 600.333 -892 559c-38.667 22 -87.334 39.667 -146.001 53c-190 -131.333 -216.667 -264.333 -80 -399zM937 1116c-145.333 -106 -300.667 -128.333 -466 -67l13 40v67l13 40v40v40l27 173
c304 24.667 441.667 -86.333 413 -333z" />
    <glyph glyph-name="q" unicode="q" horiz-adv-x="1664" 
d="M341 1542c-66.667 52.667 -129.335 48.3311 -188.002 -13.002c-20.667 -52.667 -43 -93 -67 -121c58.667 -222.667 36 -411 -68 -565c-37.333 -185.333 12 -270.666 148 -255.999c37.333 -219.333 131.666 -389.666 282.999 -510.999c210 -73.333 403 -73.333 579 0h80
c58 -63.333 125.333 -90.333 202 -81c28.667 104 33.334 198.333 14.001 283c135.333 148 220.333 305 255 471c66.667 250 44.334 474 -66.999 672v95c-183.333 234 -407.666 346 -672.999 336c-204 -62 -370 -165.333 -498 -310zM1297 680.997
c-43.333 -52.667 -83.6689 -92.999 -121.002 -120.999l-121 242c-84.667 -16.667 -156.667 -48 -216 -94c-38 -26 -64.667 -53 -80 -81c66.667 -88 111.334 -173 134.001 -255c-290 -72 -424.667 49 -404 363c-28 405.333 106.667 670 404 794
c308.667 -46.667 443.334 -329.334 404.001 -848.001z" />
    <glyph glyph-name="r" unicode="r" horiz-adv-x="1179" 
d="M81 975c-21.333 -100.667 -53.666 -183.665 -96.999 -248.998c6 -69.333 22.333 -125 49 -167l12 -41v-195c10 -122.667 14 -224.334 12 -305.001c14 -9.33301 22 -18.666 24 -27.999c49.333 -22 98 -26.333 146 -13c14.667 32.667 31 60.334 49 83.001l12 28
c18 109.333 46.333 197 85 263l61 -125l48 -27l49 -56l60 -28l73 -41l49 -42c64 -24.667 116.667 -52.334 158 -83.001l48 -28l49 -14l97 -69l37 -14l24 -28l36 -14l37 -13l194 -125l158 -28l61 97v97c-14 9.33301 -22 18.666 -24 27.999
c-14.667 9.33301 -23 18.666 -25 27.999l-24 14l-36 27c-38 31.333 -66.333 63.666 -85 96.999c-48 27.333 -84.667 59.666 -110 96.999l-24 14l-24 14l-73 56l-73 27l-24 28l-25 14c-85.333 38.667 -154 89.667 -206 153l-25 13l-24 14l-73 56
c-80.667 60 -141.334 129.333 -182.001 208l-61 55c496 232.667 678.333 519.334 547 860.001c-222 161.333 -444.667 240 -668 236c-282.667 -45.333 -380 -336.666 -292 -873.999zM385 1242v36l36 219c227.333 -58.667 215.333 -143.667 -36 -255z" />
    <glyph glyph-name="s" unicode="s" horiz-adv-x="1427" 
d="M271 1318c57.333 -279.333 304.999 -462.002 742.999 -548.002c40.667 -38.667 62.334 -82 65.001 -130c-130.667 -136 -274 -227.333 -430 -274c-83.333 -54 -161.666 -88.667 -234.999 -104c-8.66699 -10 -17.334 -14.333 -26.001 -13
c-92.667 -52 -175.334 -86.667 -248.001 -104c-58.667 -36.667 -102 -75.667 -130 -117c591.333 -74.667 1039 73 1343 443c150.667 380.667 -66.666 632.334 -651.999 755.001c-44.667 32.667 -79.334 67.667 -104.001 105
c116.667 152.667 277.334 213.334 482.001 182.001c164 220 116.333 333 -143 339c-412 -41.333 -633.667 -219.333 -665 -534z" />
    <glyph glyph-name="t" unicode="t" horiz-adv-x="1028" 
d="M-4 1481c48 -150.667 152.332 -218.666 312.999 -203.999c-12 -68.667 -16.333 -128 -13 -178v-408c2.66699 -106 -2 -197 -14 -273c13.333 -66 13.333 -125 0 -177c11.333 -50.667 16 -100.334 14 -149.001l27 13c123.333 -166 232.333 -125 327 123v109l-14 95l14 41
v95l13 82c26 124 35 228.333 27 313v41c42.667 126.667 61 244.667 55 354c164.667 39.333 246.334 144 245.001 314c-173.333 140.667 -359.333 199.667 -558 177c-220 -55.333 -365.333 -178 -436 -368z" />
    <glyph glyph-name="u" unicode="u" horiz-adv-x="1393" 
d="M1009 1764l-29.9971 -83.999l-30 -69l-15 -70l-30 -70l-30 -70l-15 -70l-15 -98c-26.667 -52 -46.667 -103 -60 -153c-14.667 -108 -49.667 -196.667 -105 -266c2.66699 -65.333 -7.33301 -121 -30 -167c-54.667 -42.667 -104.334 -33.334 -149.001 27.999l-45 70v41v56
c14 78 19 143.333 15 196v140l15 279v42c-44.667 81.333 -69.667 160.333 -75 237c-42.667 42 -87.667 70 -135 84l-121 -140c-110.667 -353.333 -143.334 -604 -98.001 -752l-6 -267c-8.66699 -85.333 -8.66699 -155.333 0 -210c102 -346 316.667 -443.667 644 -293
l142 -190c119.333 37.333 221.666 110 306.999 218l15 56v42c-28.667 103.333 -38.667 196.333 -30 279v84c23.333 56.667 38.333 107.667 45 153l15 70c20.667 55.333 30.667 106.666 30 153.999l15 42l30 140c74 180.667 109 343.334 105 488.001
c-53.333 100.667 -133.333 142.667 -240 126l-15 42z" />
    <glyph glyph-name="v" unicode="v" horiz-adv-x="1221" 
d="M2 1683c31.333 -56 49.3369 -136.667 54.0039 -242l-14 -296v-444c31.333 -131.333 36 -248 14 -350c59.333 -97.333 90.666 -191.333 93.999 -282c87.333 -72.667 177 -90.667 269 -54c273.333 107.333 434.666 291 483.999 551l27 14
c162.667 319.333 248 606.333 256 861c-27.333 18 -49.666 22.333 -66.999 13l-41 -53l-27 -41l-40 -54l-94 -161l-40 -54l-41 -40l-40 -41l-14 -27c-42.667 -84 -92 -151 -148 -201c-44.667 -98 -98.334 -174.333 -161.001 -229c-16.667 -1.33301 -30 3 -40 13
c-14.667 81.333 -19.334 157.666 -14.001 228.999c-22 44.667 -31 85 -27 121v148v67v175v54v41c22.667 161.333 31.667 291.333 27 390c-62.667 42.667 -125.334 65 -188.001 67c-108 -33.333 -184.333 -91.666 -229 -174.999z" />
    <glyph glyph-name="w" unicode="w" horiz-adv-x="1724" 
d="M-3 1636c10.667 -89.333 42.668 -164.998 96.001 -226.998l12 -84l12 -72c16 -48 24 -92 24 -132c29.333 -94.667 45.333 -178.334 48 -251.001c56 -154 80 -294 72 -420c20 -32 31.667 -64 35 -96c14 -120.667 46 -224.334 96 -311.001h96c37.333 42 69.333 74 96 96
l24 60c27.333 36.667 47.333 68.334 60 95.001v36l24 24c24 90.667 52 162.667 84 216c12 -44 20 -84 24 -120c36.667 -76.667 52.334 -148.334 47.001 -215.001l24 -24l12 -36c39.333 -75.333 67.333 -139.333 84 -192c309.333 244 489 539.667 539 887
c73.333 163.333 105.333 323 96 479c37.333 94 57.333 181.667 60 263c-64 -40.667 -112 -88.334 -144 -143.001l-24 -48l-24 -36l-12 -36l-24 -24l-24 -48c-20.667 -63.333 -44.334 -115.333 -71.001 -156l-12 -36l-12 -24l-12 -36l-12 -24
c-20.667 -39.333 -36.667 -75 -48 -107l-60 -120l-12 -24l-12 -24c-27.333 -60 -55.333 -108 -84 -144l-12 48l-12 24c-16 75.333 -36 139.333 -60 192c-21.333 60.667 -41.333 108.334 -60 143.001c25.333 162 29.333 302 12 420c-6.66699 14.667 -14.667 22.667 -24 24
l-36 -36l-24 -24c-108.667 17.333 -208.334 -14.667 -299.001 -96l-36 -72c62 -141.333 58 -269 -12 -383l-12 48l-12 71c-8.66699 21.333 -12.667 41.333 -12 60l-24 60v60c-8.66699 12 -12.667 24 -12 36c-21.333 79.333 -33.333 147.333 -36 204
c-15.333 46 -23.333 86 -24 120l-12 48l-48 275c-56 35.333 -111.667 51.333 -167 48c-81.333 -60.667 -133.333 -132.667 -156 -216z" />
    <glyph glyph-name="x" unicode="x" horiz-adv-x="1328" 
d="M1192 1822c-8 -13.333 -17.0039 -21.667 -27.0039 -25l-18 -39l-19 -25l-18 -26l-101 -153l-27 -26c-19.333 -38.667 -40.666 -64.334 -63.999 -77.001c-6 -14.667 -12.333 -23 -19 -25c-56 -86 -107.667 -150 -155 -192c-62 68 -107.667 149 -137 243
c-65.333 85.333 -102 183.333 -110 294c-62.667 -6.66699 -114.667 -23.667 -156 -51c-66.667 -95.333 -94 -202 -82 -320c58 -64 100.667 -128 128 -192c62 -63.333 110.667 -136 146 -218l-18 -25l-27 -13l-19 -38l-36 -26l-19 -38l-18 -26l-55 -51
c-6 -14.667 -12 -23.334 -18 -26.001c-21.333 -40 -39.666 -69.667 -54.999 -89l-18 -13c-45.333 -96 -94.333 -168.667 -147 -218c-29.333 -80.667 -56.666 -144.667 -81.999 -192c-14.667 -88 -17.667 -164.667 -9 -230c43.333 50.667 83 84.667 119 102l27 52l37 25
l45 51l28 26l37 51l36 26c32.667 48 66.334 82 101.001 102c46.667 84 98.334 148 155.001 192c32 54.667 65.667 97.334 101 128.001l9 -38l19 -13l118 -230c7.33301 -8.66699 10.666 -17.334 9.99902 -26.001c40 -33.333 70.333 -71.666 91 -114.999l28 -26l9 -25
c24 -15.333 42.333 -36.666 55 -63.999c33.333 -22 60.666 -47.667 81.999 -77h82v77l-36 89v39l-18 25l-10 39l-18 38l-9 38c-25.333 58 -43.666 109.333 -54.999 154l-18 13l-9 38l-19 13l-9 38l-18 13l-9 39c-33.333 40 -58 82.333 -74 127l-18 13v39l37 25l36 39l37 64
c30.667 26 55 51.333 73 76l28 39l27 25c30.667 57.333 61.334 100 92.001 128l9 26l18 26l18 12c31.333 57.333 62 104.333 92 141l-9 39c15.333 62.667 21.333 118 18 166c-38.667 38 -78.334 59.333 -119.001 64c-16.667 -13.333 -32 -22 -46 -26z" />
    <glyph glyph-name="y" unicode="y" horiz-adv-x="1187" 
d="M265 1822c-117.333 -58 -203.667 -131.331 -259 -219.998l13 -65h39c14 -8.66699 22.667 -17.334 26 -26.001l38 -25l26 -26l39 -26l26 -26l26 -39c69.333 -41.333 121 -84.333 155 -129c-5.33301 -54.667 -1 -102.334 13 -143.001c42 -61.333 72.333 -117.333 91 -168
l-13 -39c-10 -65.333 -23 -117 -39 -155c-10.667 -118.667 -36.667 -218 -78 -298l13 -155c-9.33301 -98.667 16.667 -176.334 78 -233.001c5.33301 -65.333 22.666 -74 51.999 -26l26 26l13 26l38 90l26 13c30 66.667 60.333 118.667 91 156l26 129l91 285v142
c22 69.333 34.667 129.666 38 180.999c18.667 68.667 27.334 129.334 26.001 182.001c169.333 143.333 264.333 307 285 491c-190 56.667 -367 -33.666 -531 -270.999c-150 99.333 -253.333 220 -310 362l-52 13z" />
    <glyph glyph-name="z" unicode="z" horiz-adv-x="1289" 
d="M317 1451c14.667 6.66699 22.6689 14.667 24.002 24l37 -24c13.333 -8 21.333 -16 24 -24c151.333 -55.333 264.666 -116.333 339.999 -183l-36 -24l-25 -48l-36 -49l-37 -37l-36 -48l-24 -37l-37 -24c-8 -14 -16 -22 -24 -24l-37 -49l-72 -61
c-45.333 -64.667 -86 -113 -122 -145l-24 -49c-20 -49.333 -40.333 -89.666 -61 -120.999c-37.333 -143.333 -94 -261 -170 -353v-48c26.667 -53.333 59 -94 97 -122c102.667 19.333 187.667 55.666 255 108.999l25 -12h48c113.333 -21.333 206.666 -33.333 279.999 -36
c184.667 -63.333 354.667 -83.666 510 -60.999c54 44 90.333 92.667 109 146l-24 12l-25 12l-12 24c-62.667 20.667 -111 45 -145 73l-37 13l-49 12l-97 36l-36 12l-49 12l-24 13c-12 -9.33301 -24 -13.666 -36 -12.999l-25 13l-24 12l-194 36v37
c99.333 224 241 394 425 510l12 24l24 12l12 25l25 12c29.333 39.333 57.666 71.666 84.999 96.999c42 11.333 78.333 31.666 109 60.999c12.667 53.333 33 98 61 134c-106.667 194 -264.667 303.333 -474 328c-117.333 109.333 -243 174 -377 194
c-165.333 -102 -209.666 -235.667 -132.999 -401z" />
    <glyph glyph-name="braceleft" unicode="{" horiz-adv-x="420" 
 />
    <glyph glyph-name="bar" unicode="|" horiz-adv-x="201" 
 />
    <glyph glyph-name="braceright" unicode="}" horiz-adv-x="360" 
 />
    <glyph glyph-name="asciitilde" unicode="~" 
 />
    <glyph glyph-name="nonbreakingspace" unicode="&#xa0;" horiz-adv-x="498" 
 />
    <glyph glyph-name="exclamdown" unicode="&#xa1;" horiz-adv-x="309" 
 />
    <glyph glyph-name="cent" unicode="&#xa2;" 
 />
    <glyph glyph-name="sterling" unicode="&#xa3;" 
 />
    <glyph glyph-name="currency" unicode="&#xa4;" horiz-adv-x="420" 
 />
    <glyph glyph-name="yen" unicode="&#xa5;" 
 />
    <glyph glyph-name="brokenbar" unicode="&#xa6;" horiz-adv-x="201" 
 />
    <glyph glyph-name="section" unicode="&#xa7;" horiz-adv-x="420" 
 />
    <glyph glyph-name="dieresis" unicode="&#xa8;" horiz-adv-x="371" 
 />
    <glyph glyph-name="copyright" unicode="&#xa9;" horiz-adv-x="714" 
 />
    <glyph glyph-name="ordfeminine" unicode="&#xaa;" horiz-adv-x="402" 
 />
    <glyph glyph-name="guillemotleft" unicode="&#xab;" horiz-adv-x="540" 
 />
    <glyph glyph-name="logicalnot" unicode="&#xac;" horiz-adv-x="1395" 
 />
    <glyph glyph-name="minus" unicode="&#xad;" 
 />
    <glyph glyph-name="minus" unicode="&#x2212;" 
 />
    <glyph glyph-name="registered" unicode="&#xae;" horiz-adv-x="747" 
 />
    <glyph glyph-name="macron" unicode="&#xaf;" horiz-adv-x="360" 
 />
    <glyph glyph-name="macron" unicode="&#x2c9;" horiz-adv-x="360" 
 />
    <glyph glyph-name="degree" unicode="&#xb0;" horiz-adv-x="285" 
 />
    <glyph glyph-name="plusminus" unicode="&#xb1;" 
 />
    <glyph glyph-name="twosuperior" unicode="&#xb2;" horiz-adv-x="300" 
 />
    <glyph glyph-name="threesuperior" unicode="&#xb3;" horiz-adv-x="300" 
 />
    <glyph glyph-name="acute" unicode="&#xb4;" horiz-adv-x="462" 
 />
    <glyph glyph-name="mu" unicode="&#xb5;" horiz-adv-x="420" 
 />
    <glyph glyph-name="mu" unicode="&#x3bc;" horiz-adv-x="420" 
 />
    <glyph glyph-name="paragraph" unicode="&#xb6;" horiz-adv-x="450" 
 />
    <glyph glyph-name="periodcentered" unicode="&#xb7;" horiz-adv-x="207" 
 />
    <glyph glyph-name="periodcentered" unicode="&#x2219;" horiz-adv-x="207" 
 />
    <glyph glyph-name="cedilla" unicode="&#xb8;" horiz-adv-x="321" 
 />
    <glyph glyph-name="onesuperior" unicode="&#xb9;" horiz-adv-x="300" 
 />
    <glyph glyph-name="ordmasculine" unicode="&#xba;" horiz-adv-x="402" 
 />
    <glyph glyph-name="guillemotright" unicode="&#xbb;" horiz-adv-x="540" 
 />
    <glyph glyph-name="onequarter" unicode="&#xbc;" horiz-adv-x="786" 
 />
    <glyph glyph-name="onehalf" unicode="&#xbd;" horiz-adv-x="786" 
 />
    <glyph glyph-name="threequarters" unicode="&#xbe;" horiz-adv-x="786" 
 />
    <glyph glyph-name="questiondown" unicode="&#xbf;" horiz-adv-x="567" 
 />
    <glyph glyph-name="Agrave" unicode="&#xc0;" horiz-adv-x="609" 
 />
    <glyph glyph-name="Aacute" unicode="&#xc1;" horiz-adv-x="609" 
 />
    <glyph glyph-name="Acircumflex" unicode="&#xc2;" horiz-adv-x="609" 
 />
    <glyph glyph-name="Atilde" unicode="&#xc3;" horiz-adv-x="609" 
 />
    <glyph glyph-name="Adieresis" unicode="&#xc4;" horiz-adv-x="609" 
 />
    <glyph glyph-name="Aring" unicode="&#xc5;" horiz-adv-x="609" 
 />
    <glyph glyph-name="AE" unicode="&#xc6;" horiz-adv-x="819" 
 />
    <glyph glyph-name="Ccedilla" unicode="&#xc7;" horiz-adv-x="729" 
 />
    <glyph glyph-name="Egrave" unicode="&#xc8;" horiz-adv-x="648" 
 />
    <glyph glyph-name="Eacute" unicode="&#xc9;" horiz-adv-x="648" 
 />
    <glyph glyph-name="Ecircumflex" unicode="&#xca;" horiz-adv-x="648" 
 />
    <glyph glyph-name="Edieresis" unicode="&#xcb;" horiz-adv-x="648" 
 />
    <glyph glyph-name="Igrave" unicode="&#xcc;" horiz-adv-x="234" 
 />
    <glyph glyph-name="Iacute" unicode="&#xcd;" horiz-adv-x="234" 
 />
    <glyph glyph-name="Icircumflex" unicode="&#xce;" horiz-adv-x="234" 
 />
    <glyph glyph-name="Idieresis" unicode="&#xcf;" horiz-adv-x="234" 
 />
    <glyph glyph-name="Eth" unicode="&#xd0;" horiz-adv-x="663" 
 />
    <glyph glyph-name="Ntilde" unicode="&#xd1;" horiz-adv-x="612" 
 />
    <glyph glyph-name="Ograve" unicode="&#xd2;" horiz-adv-x="696" 
 />
    <glyph glyph-name="Oacute" unicode="&#xd3;" horiz-adv-x="696" 
 />
    <glyph glyph-name="Ocircumflex" unicode="&#xd4;" horiz-adv-x="696" 
 />
    <glyph glyph-name="Otilde" unicode="&#xd5;" horiz-adv-x="696" 
 />
    <glyph glyph-name="Odieresis" unicode="&#xd6;" horiz-adv-x="696" 
 />
    <glyph glyph-name="multiply" unicode="&#xd7;" 
 />
    <glyph glyph-name="Oslash" unicode="&#xd8;" horiz-adv-x="696" 
 />
    <glyph glyph-name="Ugrave" unicode="&#xd9;" horiz-adv-x="660" 
 />
    <glyph glyph-name="Uacute" unicode="&#xda;" horiz-adv-x="660" 
 />
    <glyph glyph-name="Ucircumflex" unicode="&#xdb;" horiz-adv-x="660" 
 />
    <glyph glyph-name="Udieresis" unicode="&#xdc;" horiz-adv-x="660" 
 />
    <glyph glyph-name="Yacute" unicode="&#xdd;" horiz-adv-x="526" 
 />
    <glyph glyph-name="Thorn" unicode="&#xde;" horiz-adv-x="576" 
 />
    <glyph glyph-name="germandbls" unicode="&#xdf;" horiz-adv-x="498" 
 />
    <glyph glyph-name="agrave" unicode="&#xe0;" horiz-adv-x="369" 
 />
    <glyph glyph-name="aacute" unicode="&#xe1;" horiz-adv-x="369" 
 />
    <glyph glyph-name="acircumflex" unicode="&#xe2;" horiz-adv-x="369" 
 />
    <glyph glyph-name="atilde" unicode="&#xe3;" horiz-adv-x="369" 
 />
    <glyph glyph-name="adieresis" unicode="&#xe4;" horiz-adv-x="369" 
 />
    <glyph glyph-name="aring" unicode="&#xe5;" horiz-adv-x="369" 
 />
    <glyph glyph-name="ae" unicode="&#xe6;" horiz-adv-x="747" 
 />
    <glyph glyph-name="ccedilla" unicode="&#xe7;" horiz-adv-x="510" 
 />
    <glyph glyph-name="egrave" unicode="&#xe8;" horiz-adv-x="486" 
 />
    <glyph glyph-name="eacute" unicode="&#xe9;" horiz-adv-x="486" 
 />
    <glyph glyph-name="ecircumflex" unicode="&#xea;" horiz-adv-x="486" 
 />
    <glyph glyph-name="edieresis" unicode="&#xeb;" horiz-adv-x="486" 
 />
    <glyph glyph-name="igrave" unicode="&#xec;" horiz-adv-x="234" 
 />
    <glyph glyph-name="iacute" unicode="&#xed;" horiz-adv-x="234" 
 />
    <glyph glyph-name="icircumflex" unicode="&#xee;" horiz-adv-x="234" 
 />
    <glyph glyph-name="idieresis" unicode="&#xef;" horiz-adv-x="234" 
 />
    <glyph glyph-name="eth" unicode="&#xf0;" horiz-adv-x="483" 
 />
    <glyph glyph-name="ntilde" unicode="&#xf1;" horiz-adv-x="384" 
 />
    <glyph glyph-name="ograve" unicode="&#xf2;" horiz-adv-x="366" 
 />
    <glyph glyph-name="oacute" unicode="&#xf3;" horiz-adv-x="366" 
 />
    <glyph glyph-name="ocircumflex" unicode="&#xf4;" horiz-adv-x="366" 
 />
    <glyph glyph-name="otilde" unicode="&#xf5;" horiz-adv-x="366" 
 />
    <glyph glyph-name="odieresis" unicode="&#xf6;" horiz-adv-x="366" 
 />
    <glyph glyph-name="divide" unicode="&#xf7;" 
 />
    <glyph glyph-name="oslash" unicode="&#xf8;" horiz-adv-x="366" 
 />
    <glyph glyph-name="ugrave" unicode="&#xf9;" horiz-adv-x="342" 
 />
    <glyph glyph-name="uacute" unicode="&#xfa;" horiz-adv-x="342" 
 />
    <glyph glyph-name="ucircumflex" unicode="&#xfb;" horiz-adv-x="342" 
 />
    <glyph glyph-name="udieresis" unicode="&#xfc;" horiz-adv-x="342" 
 />
    <glyph glyph-name="yacute" unicode="&#xfd;" horiz-adv-x="393" 
 />
    <glyph glyph-name="thorn" unicode="&#xfe;" horiz-adv-x="348" 
 />
    <glyph glyph-name="ydieresis" unicode="&#xff;" horiz-adv-x="393" 
 />
    <glyph glyph-name="dotlessi" unicode="&#x131;" horiz-adv-x="234" 
 />
    <glyph glyph-name="Lslash" unicode="&#x141;" horiz-adv-x="570" 
 />
    <glyph glyph-name="lslash" unicode="&#x142;" horiz-adv-x="213" 
 />
    <glyph glyph-name="OE" unicode="&#x152;" horiz-adv-x="954" 
 />
    <glyph glyph-name="oe" unicode="&#x153;" horiz-adv-x="756" 
 />
    <glyph glyph-name="Scaron" unicode="&#x160;" horiz-adv-x="621" 
 />
    <glyph glyph-name="scaron" unicode="&#x161;" horiz-adv-x="342" 
 />
    <glyph glyph-name="Ydieresis" unicode="&#x178;" horiz-adv-x="526" 
 />
    <glyph glyph-name="Zcaron" unicode="&#x17d;" horiz-adv-x="690" 
 />
    <glyph glyph-name="zcaron" unicode="&#x17e;" horiz-adv-x="462" 
 />
    <glyph glyph-name="florin" unicode="&#x192;" horiz-adv-x="576" 
 />
    <glyph glyph-name="circumflex" unicode="&#x2c6;" horiz-adv-x="360" 
 />
    <glyph glyph-name="caron" unicode="&#x2c7;" horiz-adv-x="360" 
 />
    <glyph glyph-name="breve" unicode="&#x2d8;" horiz-adv-x="360" 
 />
    <glyph glyph-name="dotaccent" unicode="&#x2d9;" horiz-adv-x="183" 
 />
    <glyph glyph-name="ring" unicode="&#x2da;" horiz-adv-x="360" 
 />
    <glyph glyph-name="ogonek" unicode="&#x2db;" horiz-adv-x="270" 
 />
    <glyph glyph-name="tilde" unicode="&#x2dc;" horiz-adv-x="483" 
 />
    <glyph glyph-name="hungarumlaut" unicode="&#x2dd;" horiz-adv-x="468" 
 />
    <glyph glyph-name="Delta" unicode="&#x394;" horiz-adv-x="366" 
 />
    <glyph glyph-name="Delta" unicode="&#x2206;" horiz-adv-x="366" 
 />
    <glyph glyph-name="Omega" unicode="&#x3a9;" horiz-adv-x="1443" 
 />
    <glyph glyph-name="Omega" unicode="&#x2126;" horiz-adv-x="1443" 
 />
    <glyph glyph-name="pi" unicode="&#x3c0;" horiz-adv-x="798" 
 />
    <glyph glyph-name="endash" unicode="&#x2013;" horiz-adv-x="684" 
 />
    <glyph glyph-name="emdash" unicode="&#x2014;" horiz-adv-x="894" 
 />
    <glyph glyph-name="quoteleft" unicode="&#x2018;" horiz-adv-x="237" 
 />
    <glyph glyph-name="quoteright" unicode="&#x2019;" horiz-adv-x="240" 
 />
    <glyph glyph-name="quotesinglbase" unicode="&#x201a;" horiz-adv-x="234" 
 />
    <glyph glyph-name="quotedblleft" unicode="&#x201c;" horiz-adv-x="342" 
 />
    <glyph glyph-name="quotedblright" unicode="&#x201d;" horiz-adv-x="300" 
 />
    <glyph glyph-name="quotedblbase" unicode="&#x201e;" horiz-adv-x="402" 
 />
    <glyph glyph-name="dagger" unicode="&#x2020;" horiz-adv-x="451" 
 />
    <glyph glyph-name="daggerdbl" unicode="&#x2021;" horiz-adv-x="336" 
 />
    <glyph glyph-name="bullet" unicode="&#x2022;" horiz-adv-x="387" 
 />
    <glyph glyph-name="ellipsis" unicode="&#x2026;" horiz-adv-x="792" 
 />
    <glyph glyph-name="perthousand" unicode="&#x2030;" horiz-adv-x="729" 
 />
    <glyph glyph-name="guilsinglleft" unicode="&#x2039;" horiz-adv-x="321" 
 />
    <glyph glyph-name="guilsinglright" unicode="&#x203a;" horiz-adv-x="321" 
 />
    <glyph glyph-name="fraction" unicode="&#x2044;" horiz-adv-x="234" 
 />
    <glyph glyph-name="trademark" unicode="&#x2122;" horiz-adv-x="681" 
 />
    <glyph glyph-name="partialdiff" unicode="&#x2202;" horiz-adv-x="483" 
 />
    <glyph glyph-name="product" unicode="&#x220f;" horiz-adv-x="798" 
 />
    <glyph glyph-name="summation" unicode="&#x2211;" horiz-adv-x="1398" 
 />
    <glyph glyph-name="radical" unicode="&#x221a;" horiz-adv-x="819" 
 />
    <glyph glyph-name="infinity" unicode="&#x221e;" horiz-adv-x="669" 
 />
    <glyph glyph-name="integral" unicode="&#x222b;" horiz-adv-x="1398" 
 />
    <glyph glyph-name="approxequal" unicode="&#x2248;" 
 />
    <glyph glyph-name="approxequal" unicode="&#x22f2;" 
 />
    <glyph glyph-name="notequal" unicode="&#x2260;" 
 />
    <glyph glyph-name="lessequal" unicode="&#x2264;" horiz-adv-x="342" 
 />
    <glyph glyph-name="greaterequal" unicode="&#x2265;" horiz-adv-x="342" 
 />
    <glyph glyph-name="lozenge" unicode="&#x25ca;" horiz-adv-x="243" 
 />
    <glyph glyph-name="apple" unicode="&#xf000;" horiz-adv-x="588" 
 />
    <glyph glyph-name="fi" unicode="&#xf001;" horiz-adv-x="525" 
 />
    <glyph glyph-name="fl" unicode="&#xf002;" horiz-adv-x="480" 
 />
    <glyph glyph-name=".null" horiz-adv-x="0" 
 />
    <glyph glyph-name="nonmarkingreturn" horiz-adv-x="390" 
 />
    </font>
</defs>
</svg>
